<svg id="Camada_1" data-name="Camada 1" xmlns="http://www.w3.org/2000/svg" viewBox="0 0 141.73 141.73"><defs><style>.cls-1{fill:#fff;}</style></defs><title>Bottom_icon</title><path class="cls-1" d="M23.52,51.29C38,57.3,48.15,67.67,54.87,82.75,58.05,60.64,42,23.32,41.93,23.17a1.88,1.88,0,0,1,.28-1.06c.19-.13.86.35,1,.52s7.45,11.67,11,17.62C63.87,56.47,72.43,73.16,75.72,92a60.87,60.87,0,0,1-2.46,31.92c-1.14,3.13-2,4.83-5.05,1.34A226.61,226.61,0,0,0,41,98.15c-2.55-2.09-2.36-5-2.69-7.72C36.65,76.17,33,62.69,23.13,51.66Z"/><path class="cls-1" d="M118.38,52.71C108.91,64,105.49,77.59,104.07,91.86a12.77,12.77,0,0,1-4,8.24c-3.88,3.82-7.37,8-11,12.08l-1.76-.94a39.29,39.29,0,0,1,0-6.14c3.19-19.33,9.85-36.94,25.43-50a12.81,12.81,0,0,1,5.84-3C118.73,52.34,118.38,52.71,118.38,52.71Z"/><path class="cls-1" d="M100.06,23.06C90.38,42,88.39,62.79,84.4,83.06H83.15c-2.51-6.67-5-13.33-7.49-20a3,3,0,0,1,.28-1.9C81.55,47,90.44,34.84,100.06,23.06Z"/></svg>