<svg id="Camada_1" data-name="Camada 1" xmlns="http://www.w3.org/2000/svg" viewBox="0 0 141.73 141.73"><defs><style>.cls-1{fill:#fff;}</style></defs><title>Bottom_icon</title><path class="cls-1" d="M55.36,116.79c3.54-17.9,7.11-36,10.71-54.07.38-1.94,1.09-3.32,3.18-1.32.6.58,1.41,1.31,2.18.71C76.69,58,75.57,63.2,76,65.41c3.41,16.59,6.54,33.24,10.13,49.8.71,3.28-.25,4.82-2.61,6.59-13.86,10.43-13.83,10.46-26.67-1.07C55.71,119.68,54.53,118.76,55.36,116.79Z"/><path class="cls-1" d="M4.65,43.21c13.27,0,26.55.08,39.82-.06,3.67,0,7.23,4.68,7.23,4.68s6.72,8.66,4.45,17.35S53,77.43,51.86,80s-1.81,3.09-4.21,2c-4.4-1.94-8.85-3.81-13.37-5.44-2.67-1-3-2-1.27-4.23,3.15-4,6.12-8.19,9.84-13.2C26.83,60.75,15.23,53.3,4.65,43.21Z"/><path class="cls-1" d="M70.62,19.21c4.15,0,8.31.06,12.46,0a4.76,4.76,0,0,1,4.52,2.24C90.38,25.24,91,28.14,87.06,32c-5,4.86-9.08,10.57-13.43,16-1.83,2.29-3.18,2.92-5.33.24-5.18-6.48-10.54-12.83-16-19.11a3.11,3.11,0,0,1-.14-4.42c1.53-2.1,1.46-5.69,5.47-5.52C62,19.35,66.3,19.21,70.62,19.21Z"/><path class="cls-1" d="M137.09,43c-13.28,0-26.56.08-39.83-.06-3.66,0-7.23,4.68-7.23,4.68S83.31,56.29,85.59,65s3.1,12.25,4.28,14.79,1.81,3.1,4.21,2c4.4-1.94,8.85-3.81,13.38-5.44,2.66-1,3-2,1.27-4.23-3.16-4-6.13-8.2-9.85-13.2C114.9,60.55,126.5,53.1,137.09,43Z"/></svg>