<svg id="Layer_1" data-name="Layer 1" xmlns="http://www.w3.org/2000/svg" viewBox="0 0 81.8 81.81">
  <title>AudioOn</title>
  <g>
    <path d="M44.45,40.89q0-12.18,0-24.36a3.78,3.78,0,0,0-.06-.82,2,2,0,0,0-3.28-1Q31.44,22,21.72,29.18a1.83,1.83,0,0,1-1,.32c-3.69,0-7.38,0-11.07,0a2,2,0,0,0-2.32,2.3V49.93a2,2,0,0,0,2.24,2.26c3.57,0,7.14,0,10.71,0a2.43,2.43,0,0,1,1.76.59c.53.47,1.12.86,1.69,1.28L41,67a2.21,2.21,0,0,0,1.68.54,2,2,0,0,0,1.73-2.22Zm30-.85c-.13-1.11-.23-3-.57-4.84a28.82,28.82,0,0,0-9.38-16.5,3.26,3.26,0,0,0-5.33,1.57,3.3,3.3,0,0,0,1.12,3.54A22.68,22.68,0,0,1,67.59,44,22.52,22.52,0,0,1,60.2,58.05a3.33,3.33,0,0,0-.31,4.78,3.24,3.24,0,0,0,4.77.08C71.07,56.94,74.25,49.54,74.43,40Zm-12,.12a37.42,37.42,0,0,0-.68-3.87,17,17,0,0,0-4.69-8,3.17,3.17,0,0,0-3.34-.86,3.08,3.08,0,0,0-2.24,2.42,3.42,3.42,0,0,0,1.07,3.25,10.67,10.67,0,0,1,3,10,10.56,10.56,0,0,1-3.11,5.62A3.17,3.17,0,0,0,51.47,52a3.34,3.34,0,0,0,5.64,1.4C60.58,49.94,62.28,45.77,62.4,40.16Z"/>
    <path d="M44.45,40.89V65.32a2,2,0,0,1-1.73,2.22A2.21,2.21,0,0,1,41,67l-17.27-13c-.57-.42-1.16-.81-1.69-1.28a2.43,2.43,0,0,0-1.76-.59c-3.57,0-7.14,0-10.71,0a2,2,0,0,1-2.24-2.26V31.81a2,2,0,0,1,2.32-2.3c3.69,0,7.38,0,11.07,0a1.83,1.83,0,0,0,1-.32Q31.43,22,41.1,14.72a2,2,0,0,1,3.28,1,3.78,3.78,0,0,1,.06.82Q44.46,28.71,44.45,40.89Z"/>
    <path d="M74.43,40c-.18,9.5-3.36,16.9-9.77,22.87a3.24,3.24,0,0,1-4.77-.08,3.33,3.33,0,0,1,.31-4.78A22.52,22.52,0,0,0,67.59,44a22.68,22.68,0,0,0-7.32-20.18,3.3,3.3,0,0,1-1.12-3.54,3.26,3.26,0,0,1,5.33-1.57,28.82,28.82,0,0,1,9.38,16.5C74.2,37,74.3,38.93,74.43,40Z"/>
    <path d="M62.4,40.16c-.12,5.61-1.82,9.78-5.29,13.2A3.34,3.34,0,0,1,51.47,52a3.17,3.17,0,0,1,.93-3.28,10.56,10.56,0,0,0,3.11-5.62,10.67,10.67,0,0,0-3-10,3.42,3.42,0,0,1-1.07-3.25,3.08,3.08,0,0,1,2.24-2.42,3.17,3.17,0,0,1,3.34.86,17,17,0,0,1,4.69,8A37.42,37.42,0,0,1,62.4,40.16Z"/>
  </g>
</svg>
