<svg id="Layer_1" data-name="Layer 1" xmlns="http://www.w3.org/2000/svg" viewBox="0 0 81.8 81.81">
  <title>AudioOff</title>
  <g>
    <path d="M44.45,40.81q0-12.18,0-24.37a3.64,3.64,0,0,0-.06-.81,2,2,0,0,0-3.28-1q-9.66,7.27-19.38,14.45a1.67,1.67,0,0,1-1,.32c-3.69,0-7.38,0-11.07,0a2,2,0,0,0-2.32,2.29V49.85a2,2,0,0,0,2.24,2.26c3.57,0,7.14,0,10.71,0a2.49,2.49,0,0,1,1.76.6c.53.46,1.12.85,1.69,1.28Q32.41,60.44,41,66.91a2.18,2.18,0,0,0,1.68.55,2,2,0,0,0,1.73-2.23Z"/>
    <path d="M44.45,40.81V65.23a2,2,0,0,1-1.73,2.23A2.18,2.18,0,0,1,41,66.91Q32.42,60.43,23.77,54c-.57-.43-1.16-.82-1.69-1.28a2.49,2.49,0,0,0-1.76-.6c-3.57,0-7.14,0-10.71,0a2,2,0,0,1-2.24-2.26V31.72a2,2,0,0,1,2.32-2.29c3.69,0,7.38,0,11.07,0a1.67,1.67,0,0,0,1-.32q9.71-7.2,19.38-14.45a2,2,0,0,1,3.28,1,3.64,3.64,0,0,1,.06.81Q44.46,28.64,44.45,40.81Z"/>
  </g>
</svg>
