<svg id="Layer_1" data-name="Layer 1" xmlns="http://www.w3.org/2000/svg" viewBox="0 0 81.8 81.81">
  <title>power</title>
  <g>
    <path d="M15.45,39.89a22.54,22.54,0,0,1,5.42-14.47,46.83,46.83,0,0,1,4.54-4.59,3.15,3.15,0,0,1,3.89-.5,2.89,2.89,0,0,1,.81,4.24,9.88,9.88,0,0,1-1.53,1.57A19.29,19.29,0,0,0,22,37.63a18.66,18.66,0,0,0,6.43,17.81,17.84,17.84,0,0,0,14,4.63C51.84,59.2,59.29,51.72,60,42.86A18.89,18.89,0,0,0,52.5,25.52a4.53,4.53,0,0,1-1.76-2.18A3.17,3.17,0,0,1,51.94,20a2.88,2.88,0,0,1,3.49,0,26,26,0,0,1,7.06,7.37,25.42,25.42,0,0,1-3.7,31.53,24,24,0,0,1-15,7.29C30.52,67.49,18.89,59,16.28,46.3,15.85,44.19,15.72,42,15.45,39.89Z"/>
    <path d="M44,29.63V40a7.21,7.21,0,0,1-.11,1.23,2.93,2.93,0,0,1-3.13,2.49,3.17,3.17,0,0,1-2.83-2.83,6.73,6.73,0,0,1,0-.89q0-10.45,0-20.91a4.83,4.83,0,0,1,.09-1,3,3,0,0,1,6,.53c.05,1.18,0,2.37,0,3.56Z"/>
  </g>
</svg>
