<svg id="Layer_1" data-name="Layer 1" xmlns="http://www.w3.org/2000/svg" viewBox="0 0 81.8 81.81">
  <title>light</title>
  <g>
    <path d="M63.91,40.92A23,23,0,1,1,41,17.9,22.93,22.93,0,0,1,63.91,40.92Z"/>
    <path d="M61.05,60a7.5,7.5,0,0,1,1,.71c1.52,1.5,3,3,4.54,4.55.42.43,1.07,1,.29,1.55a1.73,1.73,0,0,1-1.61-.25c-1.64-1.49-3.19-3.08-4.71-4.7a1.85,1.85,0,0,1-.26-1.28C60.33,60.39,60.75,60.22,61.05,60Z"/>
    <path d="M14.63,15.56c.22-.32.38-.78.6-.82a1.51,1.51,0,0,1,1.14.31C18,16.64,19.69,18.26,21.26,20c.27.28.12.95.17,1.44-.5,0-1.16.1-1.46-.16-1.15-1-2.18-2.11-3.25-3.18-.47-.48-1-.94-1.42-1.44A9.39,9.39,0,0,1,14.63,15.56Z"/>
    <path d="M41.85,8.81a31,31,0,0,1,0,3.34A1.54,1.54,0,0,1,41,13.28c-.75.16-1-.48-1-1.15,0-2.27,0-4.54,0-6.8a1.51,1.51,0,0,1,.86-1.14c.77-.16,1,.5,1,1.16Z"/>
    <path d="M73.16,40a31,31,0,0,1,3.34,0c.44.05,1.11.49,1.17.84.14.74-.52.95-1.18.95-2.27,0-4.54.05-6.81,0A1.51,1.51,0,0,1,68.53,41c-.14-.75.49-1,1.17-1Z"/>
    <path d="M8.78,40a30.7,30.7,0,0,1,3.46,0c.4,0,.75.58,1.12.89-.35.3-.7.84-1.06.85q-3.59.12-7.16,0c-.35,0-.69-.59-1-.91.36-.29.7-.79,1.09-.83C6.39,39.93,7.59,40,8.78,40Z"/>
    <path d="M41.85,73.1c0,1.11,0,2.22,0,3.34,0,.67-.17,1.32-.93,1.18a1.48,1.48,0,0,1-.9-1.1c-.08-2.3-.08-4.61,0-6.91,0-.39.6-.75.92-1.12.3.38.82.74.87,1.15A33.22,33.22,0,0,1,41.85,73.1Z"/>
    <path d="M67.37,15.5a6.66,6.66,0,0,1-.62.92c-1.59,1.61-3.16,3.24-4.82,4.77-.31.29-1,.14-1.53.19.05-.49-.07-1.14.2-1.43,1.51-1.63,3.09-3.2,4.71-4.72a2.28,2.28,0,0,1,1.38-.41C66.89,14.81,67.11,15.22,67.37,15.5Z"/>
    <path d="M21.84,61a6.52,6.52,0,0,1-.64,1c-1.53,1.56-3.07,3.11-4.64,4.63-.42.41-.91,1.07-1.58.33s-.23-1.18.26-1.67c1.54-1.55,3.07-3.12,4.65-4.62a1.92,1.92,0,0,1,1.26-.4C21.38,60.25,21.59,60.7,21.84,61Z"/>
  </g>
</svg>
